<svg xmlns="http://www.w3.org/2000/svg" viewBox="0 0 800 480" role="img" aria-labelledby="title desc">
  <title id="title">Crowd navigation project visual</title>
  <desc id="desc">Stylized top-down crowd navigation scene with path planning and moving pedestrians.</desc>
  <defs>
    <linearGradient id="bg" x1="0%" y1="0%" x2="100%" y2="100%">
      <stop offset="0%" stop-color="#6a4226"/>
      <stop offset="52%" stop-color="#af6f3a"/>
      <stop offset="100%" stop-color="#f1c884"/>
    </linearGradient>
  </defs>
  <rect width="800" height="480" rx="36" fill="url(#bg)"/>
  <g opacity="0.14">
    <rect x="74" y="82" width="652" height="256" rx="28" fill="#ffffff"/>
    <rect x="106" y="114" width="164" height="58" rx="16" fill="#9d6233"/>
    <rect x="534" y="242" width="138" height="58" rx="16" fill="#9d6233"/>
  </g>
  <g fill="#ffffff" opacity="0.95">
    <circle cx="188" cy="248" r="20"/>
    <circle cx="286" cy="178" r="16"/>
    <circle cx="364" cy="286" r="18"/>
    <circle cx="474" cy="206" r="18"/>
    <circle cx="586" cy="166" r="16"/>
    <circle cx="602" cy="280" r="20"/>
  </g>
  <g fill="#8f532d" opacity="0.95">
    <circle cx="188" cy="248" r="7"/>
    <circle cx="286" cy="178" r="5"/>
    <circle cx="364" cy="286" r="6"/>
    <circle cx="474" cy="206" r="6"/>
    <circle cx="586" cy="166" r="5"/>
    <circle cx="602" cy="280" r="7"/>
  </g>
  <g fill="none" stroke="#ffffff" stroke-width="8" stroke-linecap="round" stroke-linejoin="round">
    <path d="M130 304 C204 278 248 232 304 218 S416 174 472 198 S590 266 666 230"/>
  </g>
  <g fill="#ffffff">
    <circle cx="130" cy="304" r="11"/>
    <circle cx="666" cy="230" r="11"/>
  </g>
  <g fill="#ffffff" font-family="Arial, Helvetica, sans-serif">
    <text x="54" y="78" font-size="20" font-weight="700" opacity="0.84">EMBODIED NAVIGATION</text>
    <text x="54" y="360" font-size="56" font-weight="700">Crowd Navigation</text>
    <text x="54" y="402" font-size="24" opacity="0.88">socially aware planning in dense human environments</text>
  </g>
</svg>
