<svg xmlns="http://www.w3.org/2000/svg" viewBox="0 0 800 480" role="img" aria-labelledby="title desc">
  <title id="title">M4Human project visual</title>
  <desc id="desc">Stylized radar rings and human mesh figure on a purple to cyan gradient background.</desc>
  <defs>
    <linearGradient id="bg" x1="0%" y1="0%" x2="100%" y2="100%">
      <stop offset="0%" stop-color="#31155a"/>
      <stop offset="55%" stop-color="#1c5b86"/>
      <stop offset="100%" stop-color="#79d2e2"/>
    </linearGradient>
    <linearGradient id="mesh" x1="0%" y1="0%" x2="100%" y2="100%">
      <stop offset="0%" stop-color="#f7d8ff"/>
      <stop offset="100%" stop-color="#fefefe"/>
    </linearGradient>
  </defs>
  <rect width="800" height="480" rx="36" fill="url(#bg)"/>
  <g opacity="0.18" fill="none" stroke="#ffffff">
    <circle cx="190" cy="240" r="62"/>
    <circle cx="190" cy="240" r="104"/>
    <circle cx="190" cy="240" r="148"/>
  </g>
  <g opacity="0.18" fill="#ffffff">
    <circle cx="190" cy="240" r="8"/>
    <circle cx="148" cy="190" r="6"/>
    <circle cx="240" cy="172" r="6"/>
    <circle cx="255" cy="272" r="7"/>
    <circle cx="132" cy="308" r="6"/>
  </g>
  <g transform="translate(458 78)" fill="none" stroke="url(#mesh)" stroke-linecap="round" stroke-width="8">
    <circle cx="86" cy="54" r="28"/>
    <path d="M86 86 L86 174"/>
    <path d="M86 110 L38 146"/>
    <path d="M86 110 L138 148"/>
    <path d="M86 176 L44 254"/>
    <path d="M86 176 L132 256"/>
    <path d="M54 210 L116 210"/>
  </g>
  <g transform="translate(458 78)" fill="#ffffff">
    <circle cx="86" cy="54" r="10"/>
    <circle cx="86" cy="112" r="8"/>
    <circle cx="38" cy="146" r="8"/>
    <circle cx="138" cy="148" r="8"/>
    <circle cx="54" cy="210" r="8"/>
    <circle cx="116" cy="210" r="8"/>
    <circle cx="44" cy="254" r="8"/>
    <circle cx="132" cy="256" r="8"/>
  </g>
  <g fill="#ffffff" font-family="Arial, Helvetica, sans-serif">
    <text x="54" y="78" font-size="20" font-weight="700" opacity="0.84">DATASET / BENCHMARK</text>
    <text x="54" y="360" font-size="56" font-weight="700">M4Human</text>
    <text x="54" y="402" font-size="24" opacity="0.88">mmWave radar + multimodal human mesh reconstruction</text>
  </g>
</svg>
